<?xml version="1.0" encoding="UTF-8" standalone="no"?>
<!-- Created with Inkscape (http://www.inkscape.org/) -->

<svg
   xmlns:osb="http://www.openswatchbook.org/uri/2009/osb"
   xmlns:dc="http://purl.org/dc/elements/1.1/"
   xmlns:cc="http://creativecommons.org/ns#"
   xmlns:rdf="http://www.w3.org/1999/02/22-rdf-syntax-ns#"
   xmlns:svg="http://www.w3.org/2000/svg"
   xmlns="http://www.w3.org/2000/svg"
   xmlns:xlink="http://www.w3.org/1999/xlink"
   xmlns:sodipodi="http://sodipodi.sourceforge.net/DTD/sodipodi-0.dtd"
   xmlns:inkscape="http://www.inkscape.org/namespaces/inkscape"
   width="218mm"
   height="192mm"
   viewBox="0 0 218 192"
   version="1.1"
   id="svg8"
   inkscape:version="0.92.3 (2405546, 2018-03-11)"
   sodipodi:docname="logo.svg">
  <defs
     id="defs2">
    <linearGradient
       id="linearGradient2311"
       osb:paint="solid">
      <stop
         style="stop-color:#040000;stop-opacity:1;"
         offset="0"
         id="stop2309" />
    </linearGradient>
    <linearGradient
       id="linearGradient2283"
       osb:paint="solid">
      <stop
         style="stop-color:#005656;stop-opacity:0.5411765;"
         offset="0"
         id="stop2281" />
    </linearGradient>
    <linearGradient
       inkscape:collect="always"
       xlink:href="#linearGradient2311"
       id="linearGradient2313"
       x1="113.03377"
       y1="154.49265"
       x2="122.82337"
       y2="154.49265"
       gradientUnits="userSpaceOnUse"
       gradientTransform="matrix(21.183388,0,0,21.183388,-2389.0977,-3071.622)" />
  </defs>
  <sodipodi:namedview
     id="base"
     pagecolor="#ffffff"
     bordercolor="#666666"
     borderopacity="1.0"
     inkscape:pageopacity="0.0"
     inkscape:pageshadow="2"
     inkscape:zoom="1.4"
     inkscape:cx="378.4186"
     inkscape:cy="516.62328"
     inkscape:document-units="mm"
     inkscape:current-layer="layer1"
     showgrid="false"
     inkscape:window-width="3840"
     inkscape:window-height="2035"
     inkscape:window-x="-13"
     inkscape:window-y="-13"
     inkscape:window-maximized="1"
     width="296mm" />
  <metadata
     id="metadata5">
    <rdf:RDF>
      <cc:Work
         rdf:about="">
        <dc:format>image/svg+xml</dc:format>
        <dc:type
           rdf:resource="http://purl.org/dc/dcmitype/StillImage" />
        <dc:title />
      </cc:Work>
    </rdf:RDF>
  </metadata>
  <g
     inkscape:label="Ebene 1"
     inkscape:groupmode="layer"
     id="layer1"
     transform="translate(0,-105)">
    <path
       style="opacity:1;fill:#02b3e4;fill-opacity:1;stroke:url(#linearGradient2313);stroke-width:2.11833906;stroke-linecap:butt;stroke-linejoin:round;stroke-miterlimit:4;stroke-dasharray:none;stroke-dashoffset:0;paint-order:normal"
       d="m 5.3405825,202.4715 c 0,-78.74628 0.353764,-84.91826 4.9041665,-85.45441 11.612309,-1.36847 13.66752,-1.47439 20.317199,-1.05707 6.553929,0.41097 6.953236,1.29854 6.187245,13.75268 -0.578309,9.38657 0.771075,15.85894 4.57328,21.9445 5.596862,8.95909 21.008627,17.99127 30.698543,17.99127 3.070112,0 6.305022,1.88533 7.188792,4.18755 2.46766,6.43042 19.02565,15.40813 28.417932,15.40813 9.39229,0 25.95008,-8.97771 28.41773,-15.40813 0.88335,-2.30307 4.11869,-4.18755 7.18901,-4.18755 9.67615,0 25.09617,-9.02601 30.73605,-17.99127 4.00386,-6.36433 5.16385,-12.31156 4.41692,-22.64334 l -1.01254,-14.01197 14.86904,-0.22653 c 8.17783,-0.12703 14.86881,0.89607 14.86881,2.26704 0,1.37055 1.26043,1.71374 2.80235,0.76048 1.8451,-1.13966 2.80235,27.52782 2.80235,83.90636 V 287.3473 H 109.02924 5.3410055 Z m 40.7437035,76.2926 c 1.012566,-1.63747 -0.169463,-5.20559 -2.636908,-7.92725 -4.642974,-5.1304 -6.276637,-22.72234 -2.109864,-22.72234 3.656675,0 10.38918,8.61187 16.979122,21.71848 5.320843,10.58279 7.074826,11.91012 15.739472,11.91012 7.88318,0 9.75156,-1.07397 9.75156,-5.60488 0,-3.08263 -1.23499,-5.6047 -2.74558,-5.6047 -3.17264,0 -14.068738,-20.26679 -14.068738,-26.16786 0,-2.18463 1.811179,-5.47483 4.023362,-7.31125 11.845116,-9.83056 5.789416,-33.58837 -9.961276,-39.07911 -9.54121,-3.32598 -38.361,-4.21274 -45.677106,-1.40446 -5.6252499,2.15859 -5.7845469,11.96819 -0.228773,14.09989 6.274943,2.40793 6.043197,53.18599 -0.275381,60.16696 -6.8034709,7.51779 -2.364702,10.90629 14.2865,10.90629 8.295203,0 15.910844,-1.34091 16.923407,-2.97904 z m -5.551528,-46.83457 c -2.4291,-2.4291 -1.840838,-16.94204 0.752009,-18.54436 3.899863,-2.41023 14.013659,1.40022 15.754087,5.93558 0.904531,2.35539 0.319868,5.87821 -1.298542,7.82813 -3.395486,4.09115 -12.906829,7.08118 -15.207342,4.78065 z m 93.611712,25.29257 c 3.80814,-12.71576 7.77198,-23.11956 8.80848,-23.11956 1.03587,0 4.12124,8.51213 6.85515,18.91614 6.62955,25.22962 8.65766,28.72443 16.66965,28.72443 8.43119,0 9.88988,-2.74449 20.67349,-38.89713 4.772,-15.99876 10.72219,-30.58438 13.22224,-32.41269 2.50029,-1.82813 4.08226,-5.76274 3.51541,-8.74347 -1.3388,-7.04071 -23.39706,-9.11923 -31.76918,-2.99341 -5.35239,3.91615 -5.37465,4.28665 -0.57405,9.59099 4.40676,4.86921 4.60441,7.12058 1.68408,19.16904 -1.81966,7.50869 -4.23161,14.68244 -5.35836,15.94157 -1.12696,1.25828 -4.70779,-7.49235 -7.95773,-19.44805 -6.63061,-24.39287 -10.99312,-30.55662 -19.6762,-27.80063 -4.34196,1.3769 -7.37733,7.04663 -11.78347,22.00635 -3.26415,11.08271 -6.94794,21.2179 -8.1859,22.5224 -1.23711,1.30489 -3.66917,-4.24135 -5.40282,-12.32451 -2.71635,-12.66618 -2.50939,-15.40647 1.49766,-19.83443 3.79268,-4.19093 3.99858,-5.92224 1.11849,-9.39398 -6.42641,-7.74317 -36.474822,-4.03501 -36.474822,4.50103 0,1.62477 2.41469,5.04908 5.365962,7.60801 3.10506,2.69241 8.44836,15.87019 12.681648,31.27539 10.433022,37.96762 11.385852,39.76713 20.497042,38.71666 6.99729,-0.80708 8.2791,-2.91483 14.59493,-24.00415 z m -34.11075,-90.53824 c -2.635212,-1.53581 -5.63118,-7.2693 -6.65752,-12.7401 l -1.86625,-9.94668 -13.155952,1.80908 c -10.109767,1.3896 -13.993954,0.79858 -16.775121,-2.55156 -3.927825,-4.73256 -1.946753,-18.44565 2.664869,-18.44565 1.512495,0 5.113459,-2.36449 8.003297,-5.25431 5.137815,-5.13784 5.254535,-5.1069 5.254535,1.39173 0,9.49696 6.06566,15.73925 13.484082,13.87746 4.58832,-1.15236 6.571718,-0.10586 7.652288,4.02337 2.042062,7.80902 15.957852,7.72748 18.006292,-0.10585 1.074,-4.10643 2.9822,-5.20859 6.87803,-3.97211 7.47117,2.37148 13.53004,-3.4978 13.53004,-13.10679 0,-8.0639 0,-8.0639 5.60471,-2.45919 3.08261,3.0826 6.78079,5.6047 8.2183,5.6047 4.46271,0 6.2671,10.69357 2.87394,17.03335 -2.86081,5.34583 -4.78403,5.82945 -16.82786,4.23182 l -13.59782,-1.80484 -1.86838,9.96192 c -2.47973,13.218 -11.30579,18.34819 -21.42127,12.45117 z"
       id="path21"
       inkscape:connector-curvature="0"
       inkscape:export-xdpi="96"
       inkscape:export-ydpi="96" />
  </g>
</svg>
